# xmcd CD database file
#
# Track frame offsets:
#	150
#	11445
#	21495
#	31370
#	43502
#	56285
#	67100
#	80627
#	92375
#	105520
#	118627
#	132617
#	144227
#	157180
#	168525
#	181547
#	192982
#	203077
#	216242
#	227395
#
# Disc length: 3179 seconds
#
# Revision: 2
# Processed by: cddbd v1.5.2PL0 Copyright (c) Steve Scherf et al.
# Submitted via: CDex 1.70beta2
#
DISCID=0d0c6914
DTITLE=Sons of the Pioneers - The Sons of the Pioneers, Disk 1
DYEAR=1900
DGENRE=Western
TTITLE0=Sons of the Pioneers - Tumbling Tumbleweeds
TTITLE1=Sons of the Pioneers - San Antonio Rose
TTITLE2=Sons of the Pioneers - Cool Water
TTITLE3=Sons of the Pioneers - Mexicali Rose
TTITLE4=Sons of the PioneersHave -  I Told You Lately That I Love You?
TTITLE5=Sons of the Pioneers(Ghost) -  Riders In The Sky
TTITLE6=Sons of the Pioneers - The Everlasting Hills Of Oklahoma
TTITLE7=Sons of the Pioneers - I Still Do
TTITLE8=Sons of the Pioneers - Cigareetes, Whusky, And Wild, Wild Women
TTITLE9=Sons of the Pioneers - Blue Prairie
TTITLE10=Sons of the Pioneers - Room Full Of Roses
TTITLE11=Sons of the Pioneers - Starts And Stripes On Iwo Jima
TTITLE12=Sons of the Pioneers - South of The Border (Down Mexico Way)
TTITLE13=Sons of the Pioneers - Love Me With All Your Heart
TTITLE14=Sons of the Pioneers - Maria Elena
TTITLE15=Sons of the Pioneers - You Belong To My Heart
TTITLE16=Sons of the Pioneers - My Adobe Hacienda
TTITLE17=Sons of the Pioneers - Spanish Eyes
TTITLE18=Sons of the Pioneers - Harbor Lights
TTITLE19=Sons of the Pioneers - Blue Hawaii
EXTD=
EXTT0=
EXTT1=
EXTT2=
EXTT3=
EXTT4=
EXTT5=
EXTT6=
EXTT7=
EXTT8=
EXTT9=
EXTT10=
EXTT11=
EXTT12=
EXTT13=
EXTT14=
EXTT15=
EXTT16=
EXTT17=
EXTT18=
EXTT19=
PLAYORDER=
